<svg width="1344" height="960" viewBox="0 0 1344 960" fill="none" xmlns="http://www.w3.org/2000/svg">
<path fill-rule="evenodd" clip-rule="evenodd" d="M0 21C0 9.40202 9.40201 0 21 0H693.76C698.604 0 703.299 1.67466 707.05 4.74021L787.211 70.2598C790.962 73.3253 795.657 75 800.501 75H1323C1334.6 75 1344 84.402 1344 96V939C1344 950.598 1334.6 960 1323 960H652.101C646.004 960 640.208 957.35 636.219 952.738L557.092 861.262C553.103 856.65 547.307 854 541.209 854H21C9.40202 854 0 844.598 0 833V21Z" fill="#E6E8E6"/>
<path fill-rule="evenodd" clip-rule="evenodd" d="M623.037 313.037H1122.87V629.833H623.037V313.037ZM623.037 312.208L805.245 130H1122.87H1305.91V313.037L1305.91 630.662L1123.7 812.87H1122.87V630.662L940.662 812.87H623.037H440V629.833V130H623.037V312.208Z" fill="#777777" fill-opacity="0.05"/>
<path fill-rule="evenodd" clip-rule="evenodd" d="M847.99 0C852.598 0 857.065 1.59148 860.636 4.50532L901.394 37.7693C909.586 44.4556 910.306 58 899.732 58H816.057C811.449 58 806.982 56.4085 803.411 53.4947L762.107 19.7849C754.057 13.215 753.341 0 763.732 0H847.99Z" fill="#D9D9D9"/>
<path fill-rule="evenodd" clip-rule="evenodd" d="M997.572 0C1002.18 0 1006.65 1.59148 1010.22 4.50532L1050.98 37.7693C1059.17 44.4556 1059.89 58 1049.31 58H965.639C961.031 58 956.564 56.4085 952.994 53.4947L911.689 19.7849C903.639 13.215 902.923 0 913.314 0H997.572Z" fill="#D9D9D9"/>
<path fill-rule="evenodd" clip-rule="evenodd" d="M1063.12 0C1052.9 0 1053.69 12.9634 1061.77 19.2173L1106.5 53.8188C1110 56.5294 1114.31 58 1118.74 58H1323.78C1334.83 58 1343.78 49.0457 1343.78 38V20C1343.78 8.95431 1334.83 0 1323.78 0H1063.12Z" fill="#F15025"/>
</svg>
